<?xml version="1.0" standalone="no"?><!DOCTYPE svg PUBLIC "-//W3C//DTD SVG 1.1//EN" "http://www.w3.org/Graphics/SVG/1.1/DTD/svg11.dtd"><svg t="1642571890573" class="icon" viewBox="0 0 1024 1024" version="1.1" xmlns="http://www.w3.org/2000/svg" p-id="8848" xmlns:xlink="http://www.w3.org/1999/xlink" width="200" height="200"><defs><style type="text/css"></style></defs><path d="M512 512m-512 0a512 512 0 1 0 1024 0 512 512 0 1 0-1024 0Z" fill="#E71D32" p-id="8849"></path><path d="M512 457.947429l-148.48-148.48a38.838857 38.838857 0 1 0-54.052571 54.052571L457.947429 512l-148.48 148.48a38.838857 38.838857 0 1 0 54.052571 54.052571L512 566.052571l148.48 148.48a38.838857 38.838857 0 0 0 54.052571-54.052571L566.052571 512l148.48-148.48a38.838857 38.838857 0 1 0-54.052571-54.052571L512 457.947429z" fill="#FFFFFF" p-id="8850"></path></svg>