<?xml version="1.0" encoding="UTF-8"?>
<svg width="120px" height="120px" viewBox="0 0 120 120" version="1.1" xmlns="http://www.w3.org/2000/svg" xmlns:xlink="http://www.w3.org/1999/xlink">
    <title>编组 4</title>
    <g id="酒店" stroke="none" stroke-width="1" fill="none" fill-rule="evenodd">
        <g id="空数据-直连酒店j" transform="translate(-128.000000, -567.000000)">
            <g id="编组-4" transform="translate(128.000000, 567.000000)">
                <rect id="矩形" fill-opacity="0" fill="#D8D8D8" x="0" y="0" width="120" height="120"></rect>
                <text id="加载失败" font-family="PingFangSC-Regular, PingFang SC" font-size="14" font-weight="normal" line-spacing="14" fill="#8894A8">
                    <tspan x="33" y="109">加载失败</tspan>
                </text>
                <g id="Fill-2" transform="translate(9.000000, 12.000000)" fill="#8894A8" fill-rule="nonzero">
                    <path d="M81.7643815,21.3734851 L77.4538731,21.3734851 C76.3835131,15.8363878 73.5389099,10.7658883 69.2906919,6.90067988 C64.4019192,2.44989654 58.0835779,0 51.5005013,0 C44.9163866,0 38.5980449,2.44989654 33.7092723,6.90067988 C29.4620926,10.7658883 26.6164511,15.8363878 25.5471295,21.3734851 L21.2366211,21.3734851 C9.80006989,21.3734851 0.221854429,30.3898907 0.00383738537,41.7848064 C-0.218332364,53.4435413 9.23530193,63 20.8857174,63 L26.2011806,63 C26.2136387,63 26.2240205,62.9968962 26.2354404,62.9968962 L29.5077724,62.9937924 L29.5140015,62.9886196 C38.9271468,62.9627549 49.5383478,59.7638192 54.7925586,48.6006504 C58.1105704,41.548921 62.1428475,32.1704108 63.599409,28.7583505 C63.7997771,28.288649 63.317025,27.8199823 62.8498456,28.030003 L41.5350459,37.5409401 C41.2692729,37.6599171 41.2692729,38.0354714 41.5350459,38.1554833 L45.7822256,40.0539463 C46.3511463,40.3084539 46.6127667,40.9664498 46.3729481,41.5406444 C46.0023192,42.4283181 45.4624674,43.6977534 45.0523877,44.5802543 C39.4950294,56.5234997 29.7102168,57.5880874 25.0218122,57.6894767 C25.003125,57.6894767 26.2198678,57.6843039 26.2011806,57.6843039 L21.177445,57.6843039 C12.6851621,57.6843039 5.54043211,51.020544 5.3390259,42.5607449 C5.13346696,33.8454034 12.1868374,26.6902159 20.8857174,26.6902159 L27.8529193,26.6902159 C29.2201975,26.6902159 30.3736116,25.6618386 30.5054601,24.3044635 C31.5436365,13.6585871 40.7688718,5.31569614 51.5005013,5.31569614 C62.2321308,5.31569614 71.456328,13.6585871 72.4945043,24.3044635 C72.6263528,25.6618386 73.780805,26.6902159 75.1480832,26.6902159 L81.8235574,26.6902159 C90.3148024,26.6902159 97.4605703,33.3529413 97.6609383,41.8137746 C97.8675355,50.5291161 90.8141651,57.6843039 82.1142468,57.6843039 L55.0188811,57.6843039 C53.559205,57.6843039 52.2843245,58.8057936 52.240721,60.2604198 C52.1960794,61.7657405 53.4065931,63 54.9067579,63 L82.1142468,63 C93.7657007,63 103.219335,53.4435413 102.996127,41.7848064 C102.779148,30.3898907 93.2009326,21.3734851 81.7643815,21.3734851" id="Fill-1"></path>
                </g>
            </g>
        </g>
    </g>
</svg>