<?xml version="1.0" standalone="no"?><!DOCTYPE svg PUBLIC "-//W3C//DTD SVG 1.1//EN" "http://www.w3.org/Graphics/SVG/1.1/DTD/svg11.dtd"><svg t="1648776899480" class="icon" viewBox="0 0 1126 1024" version="1.1" xmlns="http://www.w3.org/2000/svg" p-id="9529" xmlns:xlink="http://www.w3.org/1999/xlink" width="35.1875" height="32"><defs><style type="text/css">@font-face { font-family: feedback-iconfont; src: url("//at.alicdn.com/t/font_1031158_u69w8yhxdu.woff2?t=1630033759944") format("woff2"), url("//at.alicdn.com/t/font_1031158_u69w8yhxdu.woff?t=1630033759944") format("woff"), url("//at.alicdn.com/t/font_1031158_u69w8yhxdu.ttf?t=1630033759944") format("truetype"); }
</style></defs><path d="M19.507193 22.554453a71.983385 71.983385 0 0 1 101.575416-3.071838l470.605458 440.296665a71.369017 71.369017 0 0 1 0.204789 104.442464l-470.605457 440.296665a71.983385 71.983385 0 0 1-101.575417-3.071838 71.676201 71.676201 0 0 1 3.174232-101.473022L437.379446 512.000512l-414.698021-388.075432a71.676201 71.676201 0 0 1-3.071838-101.370627z m511.972865 0a71.983385 71.983385 0 0 1 101.575417-3.071838l470.605458 440.296665a71.369017 71.369017 0 0 1 0.204789 104.442464l-470.605458 440.296665a71.983385 71.983385 0 0 1-101.575417-3.071838 71.676201 71.676201 0 0 1 3.174232-101.473022L949.352311 512.000512l-414.698021-388.075432a71.676201 71.676201 0 0 1-3.071837-101.370627z" fill="#303133" p-id="9530"></path></svg>