<?xml version="1.0" standalone="no"?><!DOCTYPE svg PUBLIC "-//W3C//DTD SVG 1.1//EN" "http://www.w3.org/Graphics/SVG/1.1/DTD/svg11.dtd"><svg t="1650426926477" class="icon" viewBox="0 0 1638 1024" version="1.1" xmlns="http://www.w3.org/2000/svg" p-id="1200" data-spm-anchor-id="a313x.7781069.0.i5" xmlns:xlink="http://www.w3.org/1999/xlink" width="51.1875" height="32"><defs><style type="text/css">@font-face { font-family: feedback-iconfont; src: url("//at.alicdn.com/t/font_1031158_u69w8yhxdu.woff2?t=1630033759944") format("woff2"), url("//at.alicdn.com/t/font_1031158_u69w8yhxdu.woff?t=1630033759944") format("woff"), url("//at.alicdn.com/t/font_1031158_u69w8yhxdu.ttf?t=1630033759944") format("truetype"); }
</style></defs><path d="M192 0h1024v1024H192z" fill="#0052cc" fill-opacity="0" p-id="1201"></path><path d="M577.92 476.352a42.944 42.944 0 0 0 0 71.36C678.976 615.424 738.176 680.32 765.056 779.008a42.944 42.944 0 0 0 82.88-22.592c-27.648-101.504-81.664-173.12-165.248-238.976L675.584 512l7.04-5.44c79.296-62.464 131.84-129.984 160.64-223.168l4.608-15.808A42.944 42.944 0 1 0 764.992 244.992C738.112 343.616 679.04 408.512 577.92 476.352z" fill="#0052cc" p-id="1202"></path></svg>