<svg t="1631934483342" class="icon" viewBox="0 0 1706 1024" version="1.1" xmlns="http://www.w3.org/2000/svg" p-id="1943" width="200" height="200"><path d="M1324.371678 347.391566h-69.80258a428.074132 428.074132 0 0 0-132.266501-235.22104 426.4528 426.4528 0 0 0-288.12764-112.213193c-106.666533 0-208.981072 39.850617-288.170306 112.213193a428.031465 428.031465 0 0 0-132.223835 235.22104H343.978237c-185.258435 0-340.394241 146.559817-343.892904 331.775585C-3.583996 868.649581 149.54648 1023.99872 338.260911 1023.99872h86.101225l0.554666-0.042667 52.991934-0.085333 0.085333-0.085333c152.490476-0.426666 324.351595-52.394601 409.471488-233.813041 53.759933-114.64519 119.039851-267.092999 142.634489-322.559597a9.087989 9.087989 0 0 0-12.117318-11.818652L672.767159 610.132571c-4.309328 1.919998-4.309328 8.021323 0 9.983987l68.778581 30.847962a18.602643 18.602643 0 0 1 9.599988 24.191969c-6.015992 14.421315-14.762648 35.02929-21.41864 49.407939-90.026554 194.133091-248.490356 211.413069-324.436928 213.077067l19.114643-0.085334H342.996905c-137.514495 0-253.269017-108.330531-256.51168-245.845026a252.159685 252.159685 0 0 1 251.818352-257.962344h112.853192c22.143972 0 40.831949-16.682646 42.96528-38.741285 16.810646-173.055784 166.229126-308.650281 340.052908-308.650281s323.242263 135.594497 340.052909 308.650281c2.133331 22.058639 20.863974 38.741285 43.007946 38.741285h108.117198c137.514495 0 253.269017 108.330531 256.511679 245.845026a252.159685 252.159685 0 0 1-251.818352 257.962344H891.177553c-23.637304 0-44.287945 18.218644-45.013277 41.855948A43.221279 43.221279 0 0 0 889.342888 1023.99872h440.746116c188.671764 0 341.802239-155.306473 338.218244-344.831569-3.541329-185.215768-158.677135-331.775585-343.892904-331.775585" fill="#5E5E5E" p-id="1944"></path></svg>