<?xml version="1.0" encoding="UTF-8"?>
<svg width="17px" height="16px" viewBox="0 0 17 16" version="1.1" xmlns="http://www.w3.org/2000/svg" xmlns:xlink="http://www.w3.org/1999/xlink">
    <title>编组 11</title>
    <g id="----2.5多选-✅" stroke="none" stroke-width="1" fill="none" fill-rule="evenodd">
        <g id="多选" transform="translate(-901.000000, -1115.000000)">
            <g id="编组-9" transform="translate(666.000000, 967.000000)">
                <g id="编组-11" transform="translate(235.900253, 148.000000)">
                    <rect id="矩形" fill="#000000" fill-rule="nonzero" opacity="0" x="0" y="0" width="16" height="16" rx="2"></rect>
                    <rect id="Rectangle-271" stroke="#D0D3DB" fill="#F5F5F7" x="0.5" y="0.5" width="15" height="15" rx="2"></rect>
                    <path d="M4.16705384,8.97451169 C4.06017605,8.86162807 4,8.70751922 4,8.54669241 C4,8.3858656 4.06017605,8.23175675 4.16705384,8.11887313 C4.39376916,7.8815928 4.75758059,7.8815928 4.98002834,8.11887313 L6.87190109,10.1074538 L11.6199896,5.17796024 C11.8424374,4.94067992 12.2062488,4.94067992 12.4329641,5.17796024 C12.6556786,5.41524057 12.6556786,5.79603261 12.4329641,6.03331293 L7.27838834,11.3930557 C7.167246,11.5017955 7.02238348,11.5624147 6.87190109,11.5631579 C6.72030598,11.5637084 6.57444763,11.5010724 6.46514711,11.3884816 L4.16705384,8.97451169 Z" id="Shape-Copy" fill="#D0D3DB" fill-rule="nonzero"></path>
                </g>
            </g>
        </g>
    </g>
</svg>