<?xml version="1.0" encoding="UTF-8"?>
<svg width="12px" height="12px" viewBox="0 0 12 12" version="1.1" xmlns="http://www.w3.org/2000/svg" xmlns:xlink="http://www.w3.org/1999/xlink">
    <title>Path</title>
    <g id="风险预警" stroke="none" stroke-width="1" fill="none" fill-rule="evenodd">
        <g id="酒店首页-风险预警-弹框" transform="translate(-345.000000, -529.000000)" fill="#4A4A4A" fill-rule="nonzero">
            <g id="编组" transform="translate(0.000000, 511.000000)">
                <path d="M350.787868,22.8825379 L347.098421,19.1858267 C346.949456,18.9681244 346.684661,18.8607182 346.426131,18.9131323 C346.167601,18.9655464 345.965546,19.1676014 345.913132,19.4261312 C345.860718,19.684661 345.968124,19.9494559 346.228545,20.1338754 L350.09467,24 L349.882538,24.212132 L346.185827,27.9015791 C345.968124,28.0505441 345.860718,28.315339 345.913132,28.5738688 C345.965546,28.8323986 346.167601,29.0344536 346.426131,29.0868677 C346.684661,29.1392818 346.949456,29.0318756 347.133875,28.7714548 L351,24.9053301 L351.212132,25.1174621 L354.823406,28.7360003 C355.084153,28.9144191 355.435001,28.8818172 355.658409,28.6584092 C355.881817,28.4350013 355.914419,28.0841531 355.771455,27.8661246 L351.90533,24 L352.117462,23.787868 L355.814173,20.0984209 C356.031876,19.9494559 356.139282,19.684661 356.086868,19.4261312 C356.034454,19.1676014 355.832399,18.9655464 355.573869,18.9131323 C355.315339,18.8607182 355.050544,18.9681244 354.866125,19.2285452 L351,23.0946699 L350.787868,22.8825379 Z" id="Path"></path>
            </g>
        </g>
    </g>
</svg>