<?xml version="1.0" standalone="no"?><!DOCTYPE svg PUBLIC "-//W3C//DTD SVG 1.1//EN" "http://www.w3.org/Graphics/SVG/1.1/DTD/svg11.dtd"><svg t="1646793174526" class="icon" viewBox="0 0 1024 1024" version="1.1" xmlns="http://www.w3.org/2000/svg" p-id="9949" xmlns:xlink="http://www.w3.org/1999/xlink" width="32" height="32"><defs><style type="text/css"></style></defs><path d="M0 1024l0-1024 1024 0L1024 1024z" fill="#cdcdcd" fill-opacity="0" p-id="9950"></path><path d="M473.514667 741.674667C422.4 638.72 364.117333 554.069333 331.093333 519.765333c-42.581333-44.373333-102.826667-87.253333-180.821333-128.682666-18.986667-13.312-24.61866699-30.549333-16.853333-51.75466701 7.808-21.205333 24.874667-29.696 51.285333-25.42933299 65.493333 23.850667 126.037333 63.274667 181.674667 118.272 55.637333 54.95466699 104.149333 121.173333 145.578666 198.613333l11.818667-20.864c39.978667-68.522667 85.248-127.786667 135.850667-177.749333 55.637333-55.04 116.181333-94.421333 181.674666-118.272 26.410667-4.266667 43.52 4.266667 51.285334 25.42933299 7.765333 21.205333 2.133333 38.442667-16.853334 51.75466701-77.994667 41.386667-138.24 84.309333-180.864 128.682666-32.938667 34.304-91.306667 119.04-142.336 221.866667-8.618667 17.408-22.186667 26.197333-40.576 26.368-17.066667-0.170667-29.866667-8.96-38.485333-26.325333z" fill="#cdcdcd" p-id="9951"></path></svg>