<svg t="1622597115746" class="icon" viewBox="0 0 1024 1024" version="1.1" xmlns="http://www.w3.org/2000/svg" p-id="8034" width="200" height="200"><path d="M160.3 127.9h704c17.7 0 32 14.3 32 32v704c0 17.7-14.3 32-32 32h-704c-17.7 0-32-14.3-32-32v-704c0-17.6 14.3-32 32-32z" fill="#3E5D96" p-id="8035"></path><path d="M508.2 295.6h7.1c-0.1 8.9-0.2 17.9-0.2 26.8h14.5v5h-14.5c0.1 11.8 0.2 23.7 0.2 35.5 12.4 5.9 12.5 16.5 12.3 35.5 35.1 5.8 55.8-25.3 91.7-17.2 14.2 3.2 21.7 10 28.7 20.9 3.2 5 6.2 10.5 10.7 14.1 5 3.9 11.9 5.6 19 7.2 9.3 2.1 19.5 0 29.6 1.9 6.6 0.4 13.1 0.9 19.7 1.3 22.3 4.2 39 8.3 45 30.5 4.4 16.2-1.3 36.5-5.7 48.5-14.7 39.9-47.9 56.9-77.2 80.3-12.4 9.9-27.4 22.9-32.5 40.8-3.3 11.7-3 45.5-10.4 50.6-4 2.8-14.6 2.9-20.6 1.9-15.2-2.8-29-4.3-42.6-8.2-28.4-8.1-61-21.1-95-12.7-25 6.2-48.1 12.6-73.9 18.6-9.1 2.1-25.5 5.3-35.1 1.3-8.4-3.5-7.9-31.7-10.2-43.5-3.5-18.1-12.3-29.6-23.2-39.2-31.6-28.2-73-46.1-89.1-91.7-7.4-21-9.9-51.4 5.4-64.7 11.3-9.8 26.2-10 44.1-13.3 5.8-0.3 11.5-0.5 17.3-0.8 3.5-0.1 7-0.2 10.4-0.3 9.3-1.7 18.2-1.7 25.6-5 10.2-4.6 15.2-16 21.6-24.9 6.1-8.5 15.1-11.7 26.8-14.1 6.8-1.4 14.6-0.1 20.4 1.3 7.6 1.9 14.3 3.2 21.1 6.1 13.1 5.6 28.4 13.1 46.9 10.3-0.2-18.6 0.6-30 12.3-35.5 0.1-11.8 0.2-23.7 0.2-35.5h-13.7v-5h13.7c-0.3-8.9-0.3-17.9-0.4-26.8z m-64 125.1c-7.4 3.2-14.5 2.1-19.2 8v1.6c3.8 8.3 28.7 5.8 31.5-1.9 1.6-6.3-6.8-7.9-12.3-7.7z m131.3 0c-3.8 1.7-7 1.1-8.5 5.3-2.2 9.6 27.2 12.8 31 5 0.4-0.7 0.6-1.5 0.2-2.4-2-4.9-15.5-7.9-22.7-7.9z m-97.4 37.2c-16.4 3.4-32.9 6.7-49.3 10.1-6.2 1.5-14.4 1.3-16.3 7.4-2.2 6.7 7.2 25.9 9.2 31 10.8 27.2 26.6 49.5 38.6 75.8 4.4 9.6 6.3 29.7 21.1 27 6.4-1.2 17.3-1.2 20.4-6.1 2.1-3.4-2.2-16.2-3.3-20.7-3.4-13.3-5-27.9-7.3-43-0.5-7.2-0.9-14.5-1.4-21.7v-39.8c0-5.1 1.1-11.8-0.7-15.4-1.9-3.4-5.8-4.7-11-4.6z m63.5 0c-2.9 1.6-5.6 1.8-7.1 4.8-1.9 3.7-0.7 10.5-0.7 15.6v39.5c-0.3 5.5-0.6 11-0.9 16.4-2.2 15-3.1 29.4-6.4 43-1.1 4.7-6.6 20.4-5.4 24.4 1.4 4.8 19.1 9.2 26.5 7.7 7.6-1.6 8.5-9.1 11.1-16.2 5.3-13.9 11.9-27 18.7-39.5 9.8-17.9 19.9-35 27.7-55.4 1.5-4 7.6-17.6 5.9-22.8-2-6.1-10.1-5.9-16.3-7.4-10.2-2-20.4-4.1-30.6-6.1-7.1-1.8-14.3-4-22.5-4zM357 471.7c-10.2 6.4-25.2 7.2-29.4 20.2-1.7 5.2 0.9 11 2.1 14.8 3.9 11.8 9.2 21.8 14.9 31.6 12.8 21.9 27 41.4 41.2 61.5 3.8 5.3 12.3 18.8 18 20.9 3.9 1.4 29.2-7.1 32.2-9.3 9-6.6-4.8-32.7-8.5-39.8-14.9-28.3-34.2-51.4-51.2-77.2-3.9-6.2-10.7-22.8-19.3-22.7z m306.4 0c-8.5 6.3-15.5 21.5-21.8 30.8-15.4 22.8-32.4 43.9-45.7 69.2-3.7 7-17.5 33.2-8.5 39.8 3 2.2 28.3 10.7 32.2 9.3 5.9-2.2 19.7-22.8 23.9-28.9 14.3-20.6 28.5-40.5 40.7-63.6 4.8-9 10.1-18.9 12.1-30.8 2.2-13-22.8-25.9-32.9-25.8z" fill="#FFFFFF" p-id="8036"></path></svg>