<svg t="1624265548123" class="icon" viewBox="0 0 1024 1024" version="1.1" xmlns="http://www.w3.org/2000/svg" p-id="8463" width="200" height="200"><path d="M512 28c65.4 0 128.8 12.8 188.4 38 57.6 24.4 109.4 59.2 153.8 103.8 44.4 44.4 79.4 96.2 103.8 153.8 25.2 59.6 38 123 38 188.4s-12.8 128.8-38 188.4c-24.4 57.6-59.2 109.4-103.8 153.8-44.4 44.4-96.2 79.4-153.8 103.8-59.6 25.2-123 38-188.4 38s-128.8-12.8-188.4-38c-57.6-24.4-109.4-59.2-153.8-103.8C125.4 809.8 90.4 758 66 700.4c-25.2-59.6-38-123-38-188.4s12.8-128.8 38-188.4c24.4-57.6 59.2-109.4 103.8-153.8C214.2 125.4 266 90.4 323.6 66c59.6-25.2 123-38 188.4-38m0-28C229.2 0 0 229.2 0 512s229.2 512 512 512 512-229.2 512-512S794.8 0 512 0z m-61 222.8c3-0.6 8 4.2 6 15.2-0.8 4.4-4.6 18.8-10.2 29.6-4.8 9.4-21.2 31.4-37 44.6-15.8 13.2-59.8 45.2-85.6 59.2-20 10.8-62.8 42.6-74 54.2-51.4 54-52 100.4-51 113.8 5.4 77 34 107 79.8 146.2 27.4 23.4 36.8 38.6 46.8 57 8 15 3.8 19.6-3.2 21.8-8.8 2.6-28.6 11.8-34.2 13.8-5.6 2.2-9.6 8.8-9 12.2 0.4 3.4 22.6 64 24 70.6 1.6 6.8 7 7.6 7 7.6L449 600l-36.8-17.6c-12.8 24.8-22.4 30-31.2 35-9 5-20 8-45.8-5.4-11.2-5.8-27.8-27.2-32.8-57.4-4.8-30.2 17.8-72.4 35-95.2 17.2-23 51.4-55.4 51.4-55.4 12.6-12.2 49.8-51.6 49.8-51.6 19.2-21.4 42.4-62.8 42.4-62.8 6.2-12.2 16.4-28.2 17.6-46.6 2.6-36.8-18.6-56.8-32.4-69.8-11-10.4-28.6-17.4-34.8-18-16.4-1.2-32.6 12.8-36.2 20-11.2 21.6-0.6 34.8-0.6 34.8 6.4 12.2 27.2 21.8 37.8 19.4 10.6-2.4 14-5.8 18.6-6.6zM756 396c4.2 10 24.2 21.4 37.8 19.4 0 0 17 0.8 28-20.6 3.6-7 5.8-28.4-4.8-41-4-4.6-20-15-34.8-18-18.6-3.6-47.2-9.4-75.6 14-14.2 11.8-21.4 29.4-27.8 41.4 0 0-20.2 42.8-26.4 71 0 0-10.6 53.2-13.2 70.6 0 0-6.8 46.6-15.4 74-8.6 27.4-29.8 70.2-57.2 83.8-27.4 13.6-54.6 12.4-65.8 6.6-25.8-13.4-29.8-24-31-34.2-1.2-10.2-2.4-21 10.4-45.8l-35.8-19.8-138.6 268.8s4 3.8 10.2 1.2c6.4-2.6 68.4-19.8 71.6-21.4 3.2-1.6 6.2-8.6 4.8-14.4-1.6-5.8-5.6-27.2-8.6-36-2.4-7-1-13.2 15.8-15.2 20.8-2.6 38.6-3.6 73.6 5 58.6 14.4 99.6 20.4 165.4-19.8 11.6-7 49-34.4 63.2-107.6 3-15.8 4.2-69 1.2-91.6-3.6-29.2-3-83.6-1.4-104 1.6-20.4 10-46.6 15-56 5.6-10.8 15-22.2 18.2-25.4 7.8-8 14.4-6.8 15.8-4 2 4.4 1.2 9.2 5.4 19z m-68-13.2l-210-108.2-8.6 16.6 210 108.2 8.6-16.6z m-140.4-57.8l-8.6-4.4L412 567.2l8.6 4.4 127-246.6z m24.4 12.6l-8.6-4.4-127 246.6 8.6 4.4L572 337.6z m24.4 12.6l-8.6-4.4-127 246.6 8.6 4.4 127-246.6z m24.4 12.6l-8.6-4.4-127 246.6 8.6 4.4 127-246.6z m-90.2 258.4l-148.8-76.8-11.8 23 148.8 76.8 11.8-23z" p-id="8464" fill="#3E5D96"></path></svg>