<?xml version="1.0" encoding="UTF-8"?>
<svg width="16px" height="16px" viewBox="0 0 16 16" version="1.1" xmlns="http://www.w3.org/2000/svg" xmlns:xlink="http://www.w3.org/1999/xlink">
    <title>zuo备份</title>
    <g id="菜单" stroke="none" stroke-width="1" fill="none" fill-rule="evenodd">
        <g transform="translate(-512.000000, -3061.000000)" fill-rule="nonzero" id="zuo备份">
            <g transform="translate(520.000000, 3069.000000) scale(-1, 1) translate(-520.000000, -3069.000000) translate(512.000000, 3061.000000)">
                <rect id="矩形" fill="#000000" opacity="0" x="0" y="0" width="16" height="16"></rect>
                <path d="M12.4276044,15.9937778 C12.2276044,15.9937778 12.0249378,15.9271111 11.8560489,15.7937778 L3.02938222,8.69333333 C2.81482451,8.5203726 2.69008374,8.25959104 2.69008374,7.984 C2.69008374,7.70840896 2.81482451,7.4476274 3.02938222,7.27466667 L11.8178267,0.210666672 C12.210517,-0.0863554099 12.7682105,-0.0172690299 13.0765534,0.36659616 C13.3848962,0.750461351 13.332096,1.30993179 12.9573822,1.62933333 L5.05160444,7.98311111 L12.9982711,14.3751111 C13.2984916,14.6172972 13.4134606,15.0224179 13.2852079,15.3862003 C13.1569551,15.7499827 12.8133327,15.9934253 12.4276044,15.9937778 Z" id="路径" fill="#999999"></path>
            </g>
        </g>
    </g>
</svg>