<svg t="1632040595202" class="icon" viewBox="0 0 1024 1024" version="1.1" xmlns="http://www.w3.org/2000/svg" p-id="2799" width="200" height="200"><path d="M928 176a32 32 0 0 1 32 32v608a32 32 0 0 1-32 32H96a32 32 0 0 1-32-32V208a32 32 0 0 1 32-32h832z m0 32H96v608h832V208z" p-id="2800" fill="#999999"></path><path d="M378.496 343.984a32 32 0 0 1 12.992 13.36l127.168 246.8a32 32 0 0 0 43.104 13.792l1.76-0.96 124.528-74.416a32 32 0 0 1 41.712 7.888l210.288 271.76A16 16 0 0 1 927.392 848H118.192a32 32 0 0 1-28.016-47.456l244.848-444a32 32 0 0 1 43.472-12.56z m111.712 274.816L363.04 372 118.192 816h776.592L704.464 570.016l-124.544 74.416-3.52 1.952a64 64 0 0 1-86.192-27.584zM736 288a80 80 0 1 1 0 160 80 80 0 0 1 0-160z m0 32a48 48 0 1 0 0 96 48 48 0 0 0 0-96z" p-id="2801" fill="#999999"></path></svg>