<?xml version="1.0" encoding="UTF-8"?>
<svg width="21px" height="12px" viewBox="0 0 21 12" version="1.1" xmlns="http://www.w3.org/2000/svg" xmlns:xlink="http://www.w3.org/1999/xlink">
    <title>yanjing</title>
    <g id="PC端" stroke="none" stroke-width="1" fill="none" fill-rule="evenodd">
        <g id="登录页" transform="translate(-1127.000000, -433.000000)" fill="#AEB2B4" fill-rule="nonzero">
            <g id="编组-4" transform="translate(871.000000, 420.000000)">
                <g id="yanjing" transform="translate(256.000000, 13.000000)">
                    <path d="M10.2,12 C8.20235974,12 6.23285526,11.5411648 4.50419304,10.6727858 C2.81604634,9.82418419 1.37887078,8.60072517 0.351070794,7.13446082 C-0.117023598,6.46296991 -0.117023598,5.53733435 0.351070794,4.86584345 C1.37887078,3.39957909 2.81492091,2.17612009 4.50419304,1.32751845 C6.23313662,0.45913943 8.2026411,0 10.2,0 C12.1973589,0 14.1671448,0.458835164 15.895807,1.32721418 C17.5839537,2.17581581 19.0211292,3.39927483 20.0489292,4.86553918 C20.5170236,5.53703009 20.5170236,6.46266565 20.0489292,7.13415655 C19.0211292,8.60072517 17.5845164,9.82418419 15.8963697,10.6727858 C14.1671448,11.5411648 12.1976403,12 10.2,12 Z M10.2,1.33908061 C6.55360314,1.33908061 3.24061524,2.95991278 1.33722983,5.67458607 C1.20292627,5.8673327 1.20292627,6.13297157 1.33722983,6.3257182 C3.24005251,9.0403915 6.55304041,10.6612237 10.2,10.6612237 C13.8469596,10.6612237 17.1593848,9.04039148 19.0627702,6.3257182 C19.1971684,6.13300583 19.1971684,5.86729844 19.0627702,5.67458607 C17.1593848,2.95960852 13.8463969,1.33877634 10.2,1.33877634 L10.2,1.33908061 Z" id="形状"></path>
                    <path d="M10.2,9.36230657 C8.94242315,9.36279864 7.8084223,8.54394827 7.32685301,7.28763639 C6.84528371,6.03132451 7.11099899,4.58500247 8.00007917,3.62318073 C8.88915936,2.66135899 10.2264855,2.37348421 11.3883786,2.8938104 C12.5502718,3.4141366 13.3078781,4.64017696 13.3078781,6.00015213 C13.3058639,7.85564064 11.9157801,9.35945637 10.2,9.36230657 L10.2,9.36230657 Z M10.2,3.97677389 C9.44313706,3.97628193 8.76054657,4.46894985 8.47059215,5.22499525 C8.18063773,5.98104064 8.34043714,6.85153109 8.87545913,7.43046549 C9.41048112,8.00939989 10.2153324,8.1827347 10.9146263,7.8696257 C11.6139202,7.55651669 12.0699038,6.81864282 12.0699038,6.00015213 C12.0688196,4.88363243 11.2324514,3.97861857 10.2,3.97677389 L10.2,3.97677389 Z" id="形状"></path>
                </g>
            </g>
        </g>
    </g>
</svg>