<svg t="1631770637729" class="icon" viewBox="0 0 1024 1024" version="1.1" xmlns="http://www.w3.org/2000/svg" p-id="8714" width="200" height="200"><path d="M512 128c-211.968 0-384 172.032-384 384s172.032 384 384 384 384-172.032 384-384-172.032-384-384-384z m84.48 564.224c7.68 7.68 7.68 19.968 0 27.648-7.68 7.68-19.968 7.68-27.648 0l-193.024-193.024c-4.096-4.096-6.144-9.216-5.632-14.848-0.512-5.12 1.536-10.752 5.632-14.848l193.024-193.024c7.68-7.68 19.968-7.68 27.648 0 7.68 7.68 7.68 19.968 0 27.648L416.768 512l179.712 180.224z" p-id="8715" fill="#000000"></path></svg>