<svg xmlns="http://www.w3.org/2000/svg" xmlns:xlink="http://www.w3.org/1999/xlink" fill="none" version="1.1" width="20" height="20" viewBox="0 0 20 20"><g style="mix-blend-mode:passthrough"><g style="mix-blend-mode:passthrough"><g style="mix-blend-mode:passthrough"><rect x="0" y="0" width="20" height="20" rx="0" fill="#FFFFFF" fill-opacity="0"/></g></g><g style="mix-blend-mode:passthrough"><path d="M9.437625804138182,7.171437566162109C9.770225804138184,6.676102566162109,10.498995804138183,6.67642956616211,10.831155804138184,7.17206256616211C12.152685804138184,9.14402656616211,13.421245804138184,10.29915656616211,15.348225804138183,10.825026566162109C15.795325804138184,10.947016566162109,16.058725804138184,11.40829656616211,15.936825804138184,11.85531656616211C15.814825804138184,12.30234656616211,15.353525804138183,12.565836566162108,14.906525804138184,12.443846566162108C12.924985804138183,11.903106566162108,11.525675804138183,10.848676566162109,10.239145804138182,9.21537656616211L10.133255804138184,9.078446566162109L10.027095804138185,9.21668656616211C8.806485804138184,10.76455656616211,7.487865804138184,11.79082656616211,5.668045804138184,12.35422656616211L5.3600358041381835,12.443846566162108C4.9130048041381835,12.565836566162108,4.451724804138183,12.30234656616211,4.329734204138184,11.85531656616211C4.207743304138184,11.40829656616211,4.471236804138184,10.947016566162109,4.918262804138184,10.825026566162109C6.8449258041381835,10.29924656616211,8.111785804138183,9.14599656616211,9.437625804138182,7.171437566162109Z" fill="#1377EB" fill-opacity="1"/></g></g></svg>