<?xml version="1.0" encoding="UTF-8"?>
<svg width="20px" height="20px" viewBox="0 0 20 20" version="1.1" xmlns="http://www.w3.org/2000/svg" xmlns:xlink="http://www.w3.org/1999/xlink">
    <title>button/arrow-right-line</title>
    <g id="我的行程✅" stroke="none" stroke-width="1" fill="none" fill-rule="evenodd">
        <g id="我的行程-火车票预订56" transform="translate(-103.000000, -775.000000)" fill="#BCC1CC" fill-rule="nonzero">
            <g id="编组-4" transform="translate(0.000000, 758.000000)">
                <g id="编组-2" transform="translate(10.000000, 17.000000)">
                    <g id="button/arrow-right-line" transform="translate(103.000000, 10.000000) scale(1, -1) rotate(90.000000) translate(-103.000000, -10.000000) translate(93.000000, 0.000000)">
                        <rect id="矩形" fill-opacity="0" x="0" y="0" width="20" height="20"></rect>
                        <path d="M9.1377018,7.37130056 C9.47030136,6.87596553 10.1990726,6.87629255 10.5312275,7.37192587 C11.8527648,9.34389111 13.1213186,10.4990172 15.0483294,11.0248874 C15.4953559,11.1468784 15.7588492,11.6081581 15.6368582,12.0551845 C15.5148673,12.5022109 15.0535875,12.7657043 14.6065611,12.6437133 C12.6250565,12.102972 11.2257529,11.0485414 9.93921725,9.41523533 L9.83333333,9.27831387 L9.72716936,9.41655329 C8.5065646,10.9644225 7.18793559,11.9906867 5.36811821,12.5540887 L5.06010555,12.6437133 C4.61307912,12.7657043 4.1517994,12.5022109 4.02980845,12.0551845 C3.9078175,11.6081581 4.17131082,11.1468784 4.61833724,11.0248874 C6.54499765,10.4991128 7.81185633,9.34586027 9.1377018,7.37130056 Z" id="Stroke-3备份" transform="translate(9.833333, 9.836761) scale(-1, -1) rotate(-90.000000) translate(-9.833333, -9.836761) "></path>
                    </g>
                </g>
            </g>
        </g>
    </g>
</svg>