<?xml version="1.0" encoding="UTF-8"?>
<svg width="16px" height="16px" viewBox="0 0 16 16" version="1.1" xmlns="http://www.w3.org/2000/svg" xmlns:xlink="http://www.w3.org/1999/xlink">
    <title>error</title>
    <g id="火车✅" stroke="none" stroke-width="1" fill="none" fill-rule="evenodd">
        <g id="登录28" transform="translate(-343.000000, -240.000000)" fill="#8894A8" fill-rule="nonzero">
            <g id="error" transform="translate(343.000000, 240.000000)">
                <g id="ban">
                    <rect id="矩形" opacity="0" x="0" y="0" width="16" height="16"></rect>
                    <path d="M8,11.3333333 C8.58910374,11.3333333 9.06666667,11.8108963 9.06666667,12.4 C9.06666667,12.9891037 8.58910374,13.4666667 8,13.4666667 C7.41089626,13.4666667 6.93333333,12.9891037 6.93333333,12.4 C6.93333333,11.8108963 7.41089626,11.3333333 8,11.3333333 Z" id="路径"></path>
                </g>
                <path d="M8,0.666772564 C8.94824936,0.666772564 9.8452978,0.999030949 10.5549334,1.58889937 L10.5549334,1.58889937 L10.6286667,1.65333333 L10.726903,1.66012992 C11.5844827,1.73914483 12.3986839,2.09219797 13.0487832,2.68409375 L13.0487832,2.68409375 L13.1855344,2.81457148 C13.856021,3.48505806 14.2553048,4.35423146 14.3399738,5.27316615 L14.3399738,5.27316615 L14.3466667,5.37066667 L14.4111664,5.44505365 C14.9617918,6.10730922 15.287893,6.93291528 15.3289259,7.81114801 L15.3289259,7.81114801 L15.3333333,8.0001059 C15.3333333,8.94848801 15.0011464,9.8454022 14.4111749,10.5549446 L14.4111749,10.5549446 L14.3466667,10.6286667 L14.3399737,10.726834 C14.2609484,11.5845072 13.9078525,12.398839 13.3159389,13.0487901 L13.3159389,13.0487901 L13.1854577,13.1855052 C12.5147152,13.8560295 11.6456437,14.2553896 10.726872,14.3400761 L10.726872,14.3400761 L10.628,14.3466667 L10.5549567,14.4112842 C9.89267796,14.9617573 9.06709679,15.2877956 8.18894068,15.3288208 L8.18894068,15.3288208 L8,15.3332274 C7.05170789,15.3332274 6.15482408,15.001101 5.44525685,14.4112927 L5.44525685,14.4112927 L5.37133333,14.3466667 L5.27330293,14.3400738 C4.41568918,14.2610227 3.60133261,13.9078235 2.95139008,13.3159084 L2.95139008,13.3159084 L2.81467738,13.1854285 C2.14419081,12.5149419 1.74490703,11.6457685 1.660238,10.7268338 L1.660238,10.7268338 L1.65333333,10.6286667 L1.58900864,10.5549214 C1.03829789,9.89263393 0.712118199,9.0671699 0.671075177,8.18904197 L0.671075177,8.18904197 L0.666666667,8.0001059 C0.666666667,7.05176653 0.998985577,6.15468769 1.58901717,5.44507687 L1.58901717,5.44507687 L1.65333333,5.37066667 L1.660238,5.27316615 C1.73926243,4.41549378 2.09235126,3.60116901 2.68420897,2.95127383 L2.68420897,2.95127383 L2.81467738,2.81457148 C3.48516396,2.14408491 4.35433736,1.74480114 5.27327205,1.66013211 L5.27327205,1.66013211 L5.37066667,1.65333333 L5.44528009,1.58889084 C6.10759074,1.03833238 6.93302981,0.71221557 7.81108113,0.671180255 L7.81108113,0.671180255 Z M10.3570379,5.64296215 C10.0966883,5.38261262 9.67457834,5.38261262 9.41422881,5.64296215 L9.41422881,5.64296215 L7.99966667,7.05677256 L6.58580452,5.64296215 L6.52299963,5.58750307 C6.26147216,5.38415315 5.88331812,5.4026395 5.64299548,5.64296215 C5.38264595,5.90331167 5.38264595,6.32542166 5.64299548,6.58577119 L5.64299548,6.58577119 L7.05666667,7.99977256 L5.64299548,9.41419548 L5.58753641,9.47700037 C5.38418648,9.73852784 5.40267284,10.1166819 5.64299548,10.3570045 C5.90334501,10.617354 6.32545499,10.617354 6.58580452,10.3570045 L6.58580452,10.3570045 L7.99966667,8.94277256 L9.41422881,10.3570045 L9.4770337,10.4124636 C9.73856118,10.6158135 10.1167152,10.5973272 10.3570379,10.3570045 C10.6173874,10.096655 10.6173874,9.67454501 10.3570379,9.41419548 L10.3570379,9.41419548 L8.94266667,7.99977256 L10.3570379,6.58577119 L10.4124969,6.5229663 C10.6158469,6.26143882 10.5973605,5.88328479 10.3570379,5.64296215 Z" id="形状结合"></path>
            </g>
        </g>
    </g>
</svg>