<?xml version="1.0" encoding="UTF-8"?>
<svg width="12px" height="12px" viewBox="0 0 12 12" version="1.1" xmlns="http://www.w3.org/2000/svg" xmlns:xlink="http://www.w3.org/1999/xlink">
    <title>changyonggoupiaorenbianji</title>
    <g stroke="none" stroke-width="1" fill="none" fill-rule="evenodd">
        <g transform="translate(-331.000000, -148.000000)" fill="#7E7F80" fill-rule="nonzero">
            <g transform="translate(10.000000, 100.000000)">
                <g id="changyonggoupiaorenbianji" transform="translate(321.000000, 48.000000)">
                    <path d="M11.0769231,5.84169231 C11.0769231,5.58679165 11.2835609,5.38015385 11.5384615,5.38015385 C11.7933622,5.38015385 12,5.58679165 12,5.84169231 L12,9.69230769 C12,10.966811 10.966811,12 9.69230769,12 L2.30769231,12 C1.03318904,12 0,10.966811 0,9.69230769 L0,2.30769231 C0,1.03318904 1.03318904,0 2.30769231,0 L6.70061538,0 C6.8655072,0 7.01787352,0.0879687296 7.10031943,0.230769228 C7.18276533,0.373569726 7.18276533,0.549507197 7.10031943,0.692307695 C7.01787352,0.835108194 6.8655072,0.923076927 6.70061538,0.923076923 L2.30769231,0.923076923 C1.54299035,0.923076923 0.923076923,1.54299035 0.923076923,2.30769231 L0.923076923,9.69230769 C0.923076923,10.4570097 1.54299035,11.0769231 2.30769231,11.0769231 L9.69230769,11.0769231 C10.4570097,11.0769231 11.0769231,10.4570097 11.0769231,9.69230769 L11.0769231,5.84169231 Z M10.8775385,0.749538462 C11.0527593,0.570072345 11.339232,0.563391645 11.5226283,0.734494614 C11.7060246,0.905597584 11.7192047,1.19184492 11.5523077,1.37907692 L6.51692308,6.78 C6.40446686,6.90061836 6.2362039,6.95207965 6.07551723,6.91499889 C5.91483056,6.87791813 5.7861323,6.75792878 5.73790184,6.60022966 C5.68967139,6.44253054 5.72923609,6.2710799 5.84169231,6.15046154 L10.8775385,0.749538462 Z" id="形状"></path>
                </g>
            </g>
        </g>
    </g>
</svg>