<svg xmlns="http://www.w3.org/2000/svg" xmlns:xlink="http://www.w3.org/1999/xlink" fill="none" version="1.1" width="16" height="16" viewBox="0 0 16 16"><g style="mix-blend-mode:passthrough"><g style="mix-blend-mode:passthrough"><path d="M8,0C12.4183,0,16,3.58172,16,8C16,12.4183,12.4183,16,8,16C3.58172,16,0,12.4183,0,8C0,3.58172,3.58172,0,8,0" fill-rule="evenodd" fill="#F5F5F7" fill-opacity="1"/><path d="M3.05025,3.05025Q5.1005,1,8,0.999999Q10.8995,1,12.9497,3.05025Q15,5.1005,15,8Q15,10.8995,12.9497,12.9497Q10.8995,15,8,15Q5.1005,15,3.05025,12.9497Q1,10.8995,0.999999,8Q1,5.1005,3.05025,3.05025ZM16,8C16,3.58172,12.4183,0,8,0C3.58172,0,0,3.58172,0,8C0,12.4183,3.58172,16,8,16C12.4183,16,16,12.4183,16,8Z" fill-rule="evenodd" fill="#BCC1CC" fill-opacity="1"/></g></g></svg>