<svg xmlns="http://www.w3.org/2000/svg" xmlns:xlink="http://www.w3.org/1999/xlink" fill="none" version="1.1" width="16" height="16" viewBox="0 0 16 16"><g style="mix-blend-mode:passthrough"><g style="mix-blend-mode:passthrough"><path d="M8,0C12.4183,0,16,3.58172,16,8C16,12.4183,12.4183,16,8,16C3.58172,16,0,12.4183,0,8C0,3.58172,3.58172,0,8,0" fill-rule="evenodd" fill="#1377EB" fill-opacity="1"/></g><g style="mix-blend-mode:passthrough"><path d="M11.82398843612671,4.271554458953857C12.08496843612671,4.011829958953857,12.479038436126709,3.9676453589538574,12.76453843612671,4.181336458953857C13.050038436126709,4.395028458953857,13.024138436126709,4.892910458953858,12.82014843612671,5.1539524589538575L12.76453843612671,5.216622458953857L7.465808436126709,11.808582458953857C7.225728436126709,12.047512458953857,6.8490784361267085,12.065892458953858,6.587988436126709,11.863722458953857L6.525268436126709,11.808582458953857L3.245928436126709,9.182752458953857C2.984955236126709,8.923022458953858,2.920888936126709,8.479622458953857,3.163084436126709,8.209682458953857C3.405280436126709,7.9397524589538575,3.861522436126709,7.979652458953858,4.123538436126709,8.182372458953857L4.186478436126709,8.237682458953858L6.995208436126709,10.395382458953858L11.82398843612671,4.271554458953857Z" fill="#FFFFFF" fill-opacity="1"/></g></g></svg>