<?xml version="1.0" encoding="UTF-8"?>
<svg width="21px" height="21px" viewBox="0 0 21 21" version="1.1" xmlns="http://www.w3.org/2000/svg" xmlns:xlink="http://www.w3.org/1999/xlink">
    <title>search</title>
    <g id="----1.5-图标-✅" stroke="none" stroke-width="1" fill="none" fill-rule="evenodd">
        <g id="元年-华蓝色" transform="translate(-148.000000, -605.000000)" fill="#4E5D78" fill-rule="nonzero">
            <g id="放大icon" transform="translate(147.000000, 604.000000)">
                <rect id="矩形" fill-opacity="0" x="0" y="0" width="24" height="24"></rect>
                <path d="M10.50375,1.0025 C11.7380779,1.0025 12.9061366,1.43158209 13.8338563,2.19384393 L13.8338563,2.19384393 L13.915,2.264 L14.0248724,2.27292602 C15.134794,2.38165255 16.187843,2.84028592 17.0305646,3.60391922 L17.0305646,3.60391922 L17.2212353,3.78553605 C18.0944936,4.65789494 18.6174725,5.78731608 18.7345726,6.98262613 L18.7345726,6.98262613 L18.742,7.091 L18.8135938,7.17360501 C19.521312,8.03505731 19.9419803,9.10421031 19.998465,10.2404211 L19.998465,10.2404211 L20.005,10.50375 C20.005,11.7380779 19.5759179,12.9061366 18.8136561,13.8338563 L18.8136561,13.8338563 L18.742,13.915 L18.734574,14.0248724 C18.6496951,14.891348 18.3515705,15.7231633 17.8615651,16.4473102 L21.5606568,20.1464432 C21.9511811,20.5369675 21.9511811,21.1701325 21.5606568,21.5606568 C21.2001728,21.9211407 20.6329418,21.9488703 20.2406506,21.6438454 L20.1464432,21.5606568 L16.4471146,17.8615943 C15.722822,18.3516591 14.8911515,18.6497066 14.0248739,18.7345726 L14.0248739,18.7345726 L13.915,18.742 L13.8338563,18.8136561 C12.9724023,19.5214706 11.9037172,19.9420027 10.7671711,19.9984674 L10.7671711,19.9984674 L10.50375,20.005 C9.26992438,20.005 8.10132287,19.5757518 7.17360501,18.8135938 L7.17360501,18.8135938 L7.091,18.742 L6.98254933,18.7345876 C5.87254787,18.6259139 4.81989644,18.1674473 3.97601258,17.4033381 L3.97601258,17.4033381 L3.785045,17.2215997 C2.91258881,16.3491435 2.38994216,15.2197567 2.27291263,14.0247346 L2.27291263,14.0247346 L2.264,13.915 L2.19384393,13.8338563 C1.48602936,12.9724023 1.06549734,11.9037172 1.00903263,10.7671711 L1.00903263,10.7671711 L1.0025,10.50375 C1.0025,9.26992438 1.43174816,8.10132287 2.19390621,7.17360501 L2.19390621,7.17360501 L2.264,7.091 L2.27291263,6.98276543 C2.38158291,5.87310206 2.83999448,4.82003231 3.60346467,3.97671806 L3.60346467,3.97671806 L3.785045,3.78590026 C4.65828941,2.91265586 5.78716315,2.38994556 6.98254933,2.27291243 L6.98254933,2.27291243 L7.091,2.264 L7.17360501,2.19390621 C8.03505731,1.48618802 9.10421031,1.06551968 10.2404211,1.00903502 L10.2404211,1.00903502 Z M10.50375,3.0025 C9.62967606,3.0025 8.81171051,3.34863509 8.2054853,3.9548603 C8.01794892,4.14239668 7.76359501,4.24775352 7.49837852,4.24775352 C6.64011465,4.24775352 5.81834284,4.58102955 5.19925857,5.20011382 C4.58116963,5.81820276 4.24775352,6.64074375 4.24775352,7.49837852 C4.24775352,7.76359501 4.14239668,8.01794892 3.9548603,8.2054853 C3.34863509,8.81171051 3.0025,9.62967606 3.0025,10.50375 C3.0025,11.3783418 3.34838127,12.1955357 3.9548603,12.8020147 C4.14239668,12.9895511 4.24775352,13.243905 4.24775352,13.5091215 C4.24775352,14.3667563 4.58116963,15.1892972 5.19925857,15.8073862 C5.81834284,16.4264704 6.64011465,16.7597465 7.49837852,16.7597465 C7.76359501,16.7597465 8.01794892,16.8651033 8.2054853,17.0526397 C8.81171051,17.6588649 9.62967606,18.005 10.50375,18.005 C11.3783418,18.005 12.1955357,17.6591187 12.8020147,17.0526397 C12.9895511,16.8651033 13.243905,16.7597465 13.5091215,16.7597465 C14.3668687,16.7597465 15.1891428,16.4262667 15.8077506,15.807022 C16.4262667,15.1891428 16.7597465,14.3668687 16.7597465,13.5091215 C16.7597465,13.243905 16.8651033,12.9895511 17.0526397,12.8020147 C17.6591187,12.1955357 18.005,11.3783418 18.005,10.50375 C18.005,9.62967606 17.6588649,8.81171051 17.0526397,8.2054853 C16.8651033,8.01794892 16.7597465,7.76359501 16.7597465,7.49837852 C16.7597465,6.64063132 16.4262667,5.8183572 15.807022,5.19974943 C15.1891428,4.58123327 14.3668687,4.24775352 13.5091215,4.24775352 C13.243905,4.24775352 12.9895511,4.14239668 12.8020147,3.9548603 C12.1955357,3.34838127 11.3783418,3.0025 10.50375,3.0025 Z" id="形状结合"></path>
            </g>
        </g>
    </g>
</svg>