<?xml version="1.0" standalone="no"?><!DOCTYPE svg PUBLIC "-//W3C//DTD SVG 1.1//EN" "http://www.w3.org/Graphics/SVG/1.1/DTD/svg11.dtd"><svg t="1642560780713" class="icon" viewBox="0 0 1024 1024" version="1.1" xmlns="http://www.w3.org/2000/svg" p-id="8443" xmlns:xlink="http://www.w3.org/1999/xlink" width="200" height="200"><defs><style type="text/css"></style></defs><path d="M1024 1024l-1024 0 0-1024L1024 0z" fill="#D52222" fill-opacity="0" p-id="8444"></path><path d="M512 950.857143a438.857143 438.857143 0 1 1 0-877.714286A438.857143 438.857143 0 0 1 512 950.857143z m-0.438857-559.25028599a48.128 48.128 0 0 0 35.547428-13.75085701 44.544 44.544 0 0 0 15.140572-35.547429 42.422857 42.422857 0 0 0-15.140572-34.523428 48.64 48.64 0 0 0-35.547428-14.482286 53.394286 53.394286 0 0 0-36.864 13.824 47.689143 47.689143 0 0 0-14.482286 35.108572 48.64 48.64 0 0 0 14.482286 35.547428 52.297143 52.297143 0 0 0 36.864 13.897143z m-43.446857 370.83428599L556.982857 762.441143l-16.969143-334.043429-55.954285 0L468.114286 762.441143z" fill="#027AFF" p-id="8445"></path></svg>