<?xml version="1.0" standalone="no"?><!DOCTYPE svg PUBLIC "-//W3C//DTD SVG 1.1//EN" "http://www.w3.org/Graphics/SVG/1.1/DTD/svg11.dtd"><svg t="1642560790855" class="icon" viewBox="0 0 1024 1024" version="1.1" xmlns="http://www.w3.org/2000/svg" p-id="8571" xmlns:xlink="http://www.w3.org/1999/xlink" width="200" height="200"><defs><style type="text/css"></style></defs><path d="M0 0h1024v1024H0z" fill="#D52222" fill-opacity="0" p-id="8572"></path><path d="M512 56.888889a455.111111 455.111111 0 1 1 0 910.222222A455.111111 455.111111 0 0 1 512 56.888889z m0 579.584a49.891556 49.891556 0 0 0-36.864 14.336c-10.922667 9.557333-15.701333 21.845333-15.701333 36.864s4.778667 27.306667 15.701333 36.864A50.403556 50.403556 0 0 0 512 739.555556c15.018667 0 27.306667-4.778667 38.229333-14.336a51.996444 51.996444 0 0 0 15.018667-37.546667 50.403556 50.403556 0 0 0-15.018667-36.864 54.272 54.272 0 0 0-38.229333-14.336z m46.421333-384.341333h-92.16l17.066667 347.477333h58.026667l17.066666-347.477333z" fill="#FE5949" p-id="8573"></path></svg>