<?xml version="1.0" encoding="UTF-8"?>
<svg width="14px" height="14px" viewBox="0 0 14 14" version="1.1" xmlns="http://www.w3.org/2000/svg" xmlns:xlink="http://www.w3.org/1999/xlink">
    <title>加 3</title>
    <g id="----2.2数字输入框-✅" stroke="none" stroke-width="1" fill="none" fill-rule="evenodd">
        <g id="数字输入框" transform="translate(-966.000000, -476.000000)" fill="#C8C9CC" fill-rule="nonzero">
            <g id="步进器-/-基础样式-/-最大值状态" transform="translate(895.000000, 469.000000)">
                <g id="加" transform="translate(64.000000, 0.000000)">
                    <g id="加-3" transform="translate(7.777778, 7.777778)">
                        <path d="M6.22222222,0 C6.46768211,-4.50902501e-17 6.66666667,0.198984556 6.66666667,0.444444444 L6.666,5.777 L12,5.77777778 C12.2454599,5.77777778 12.4444444,5.97676233 12.4444444,6.22222222 C12.4444444,6.46768211 12.2454599,6.66666667 12,6.66666667 L6.666,6.666 L6.66666667,12 C6.66666667,12.2454599 6.46768211,12.4444444 6.22222222,12.4444444 C5.97676233,12.4444444 5.77777778,12.2454599 5.77777778,12 L5.777,6.666 L0.444444444,6.66666667 C0.198984556,6.66666667 3.00601667e-17,6.46768211 0,6.22222222 C-3.00601667e-17,5.97676233 0.198984556,5.77777778 0.444444444,5.77777778 L5.777,5.777 L5.77777778,0.444444444 C5.77777778,0.198984556 5.97676233,4.50902501e-17 6.22222222,0 Z" id="加"></path>
                    </g>
                </g>
            </g>
        </g>
    </g>
</svg>