<?xml version="1.0" encoding="UTF-8"?>
<svg width="22px" height="22px" viewBox="0 0 22 22" version="1.1" xmlns="http://www.w3.org/2000/svg" xmlns:xlink="http://www.w3.org/1999/xlink">
    <title>error</title>
    <g id="----1.5-图标-✅" stroke="none" stroke-width="1" fill="none" fill-rule="evenodd">
        <g id="元年-华蓝色" transform="translate(-510.000000, -728.000000)" fill="#4E5C77" fill-rule="nonzero">
            <g id="error" transform="translate(509.000000, 727.000000)">
                <g id="ban">
                    <rect id="矩形" opacity="0" x="0" y="0" width="24" height="24"></rect>
                    <path d="M12,17 C12.8836556,17 13.6,17.7163444 13.6,18.6 C13.6,19.4836556 12.8836556,20.2 12,20.2 C11.1163444,20.2 10.4,19.4836556 10.4,18.6 C10.4,17.7163444 11.1163444,17 12,17 Z" id="路径"></path>
                </g>
                <path d="M12,1.00015885 C13.422374,1.00015885 14.7679467,1.49854642 15.8324002,2.38334905 L15.8324002,2.38334905 L15.943,2.48 L16.0903545,2.49019488 C17.3767241,2.60871725 18.5980258,3.13829696 19.5731748,4.02614062 L19.5731748,4.02614062 L19.7783016,4.22185722 C20.7840315,5.22758709 21.3829571,6.5313472 21.5099607,7.90974923 L21.5099607,7.90974923 L21.52,8.056 L21.6167496,8.16758047 C22.4426878,9.16096383 22.9318395,10.3993729 22.9933889,11.716722 L22.9933889,11.716722 L23,12.0001588 C23,13.422732 22.5017196,14.7681033 21.6167623,15.832417 L21.6167623,15.832417 L21.52,15.943 L21.5099605,16.090251 C21.3914225,17.3767608 20.8617788,18.5982585 19.9739083,19.5731852 L19.9739083,19.5731852 L19.7781866,19.7782578 C18.7720728,20.7840442 17.4684655,21.3830844 16.090308,21.5101141 L16.090308,21.5101141 L15.942,21.52 L15.832435,21.6169262 C14.8390169,22.442636 13.6006452,22.9316934 12.283411,22.9932313 L12.283411,22.9932313 L12,22.9998412 C10.5775618,22.9998412 9.23223611,22.5016515 8.16788527,21.616939 L8.16788527,21.616939 L8.057,21.52 L7.90995439,21.5101107 C6.62353377,21.391534 5.40199891,20.8617353 4.42708513,19.9738626 L4.42708513,19.9738626 L4.22201607,19.7781428 C3.21628621,18.7724129 2.61736055,17.4686528 2.490357,16.0902508 L2.490357,16.0902508 L2.48,15.943 L2.38351297,15.8323821 C1.55744684,14.8389509 1.0681773,13.6007548 1.00661276,12.283563 L1.00661276,12.283563 L1,12.0001588 C1,10.5776498 1.49847837,9.23203154 2.38352576,8.1676153 L2.38352576,8.1676153 L2.48,8.056 L2.490357,7.90974923 C2.60889365,6.62324067 3.13852689,5.40175351 4.02631345,4.42691074 L4.02631345,4.42691074 L4.22201607,4.22185722 C5.22774593,3.21612736 6.53150604,2.61720171 7.90990807,2.49019816 L7.90990807,2.49019816 L8.056,2.48 L8.16792013,2.38333626 C9.1613861,1.55749857 10.3995447,1.06832335 11.7166217,1.00677038 L11.7166217,1.00677038 Z M9.78449944,8.38125461 C9.39220824,8.07622972 8.82497718,8.10395926 8.46449322,8.46444322 C8.07396893,8.85496751 8.07396893,9.48813249 8.46449322,9.87865678 L8.46449322,9.87865678 L10.586,12.0001588 L8.46449322,14.1212932 L8.38130461,14.2155006 C8.07627972,14.6077918 8.10400926,15.1750228 8.46449322,15.5355068 C8.85501751,15.9260311 9.48818249,15.9260311 9.87870678,15.5355068 L9.87870678,15.5355068 L12,13.4141588 L14.1213432,15.5355068 L14.2155506,15.6186954 C14.6078418,15.9237203 15.1750728,15.8959907 15.5355568,15.5355068 C15.9260811,15.1449825 15.9260811,14.5118175 15.5355568,14.1212932 L15.5355568,14.1212932 L13.414,12.0001588 L15.5355568,9.87865678 L15.6187454,9.78444944 C15.9237703,9.39215824 15.8960407,8.82492718 15.5355568,8.46444322 C15.1450325,8.07391893 14.5118675,8.07391893 14.1213432,8.46444322 L14.1213432,8.46444322 L12,10.5861588 L9.87870678,8.46444322 Z" id="形状结合"></path>
            </g>
        </g>
    </g>
</svg>