<?xml version="1.0" encoding="UTF-8"?>
<svg width="14px" height="14px" viewBox="0 0 14 14" version="1.1" xmlns="http://www.w3.org/2000/svg" xmlns:xlink="http://www.w3.org/1999/xlink">
    <title>cancle-2</title>
    <g id="----1.5-图标-✅" stroke="none" stroke-width="1" fill="none" fill-rule="evenodd">
        <g id="元年-华蓝色" transform="translate(-399.000000, -609.000000)">
            <g id="cancle-2" transform="translate(394.000000, 604.000000)">
                <g id="编组" fill-rule="nonzero">
                    <rect id="矩形" x="0" y="0" width="24" height="24"></rect>
                </g>
                <path d="M18.9516642,5.42042093 L18.6930085,5.16176525 C18.5623785,5.03113526 18.3442658,5.02508088 18.1452756,5.12831481 L18.0169556,5.22292241 L17.9109647,5.16193771 C17.7338559,5.11266035 17.5048034,5.18286641 17.3304116,5.35725823 L5.35725481,17.330415 C5.18286377,17.5048061 5.1126574,17.7338588 5.16193507,17.9109674 L5.22292559,18.0169639 L5.12831737,18.1452845 C5.02508437,18.3442738 5.03113261,18.5623811 5.16176261,18.6930111 L5.42041828,18.9516668 C5.55104828,19.0822968 5.76916476,19.0883474 5.96815286,18.9851133 L6.09647303,18.8905044 L6.20247289,18.9514984 C6.37957973,19.0007744 6.60863214,18.9305683 6.78302396,18.7561765 L18.7561769,6.78302353 C18.9305688,6.60863172 19.0007725,6.379577 18.9514963,6.20246928 L18.8905053,6.09647214 L18.9851135,5.96815266 C19.0883485,5.76916365 19.0822942,5.55105092 18.9516642,5.42042093 Z" id="形状结合备份-5" fill="#4E5D78"></path>
                <path d="M18.8949492,5.36370664 L18.6362935,5.10505097 C18.5056635,4.97442097 18.2875508,4.96836659 18.0885607,5.07160052 L17.9602406,5.16620812 L17.8542498,5.10522343 C17.6771409,5.05594606 17.4480885,5.12615213 17.2736967,5.30054394 L5.30053986,17.2737008 C5.12614882,17.4480918 5.05594245,17.6771445 5.10522012,17.8542531 L5.16621064,17.9602496 L5.07160242,18.0885703 C4.96836942,18.2875595 4.97441766,18.5056669 5.10504766,18.6362969 L5.36370333,18.8949525 C5.49433333,19.0255825 5.71244981,19.0316331 5.91143791,18.928399 L6.03975808,18.8337901 L6.14575794,18.8947842 C6.32286478,18.9440601 6.55191719,18.873854 6.72630901,18.6994622 L18.699462,6.72630925 C18.8738538,6.55191743 18.9440576,6.32286272 18.8947814,6.145755 L18.8337903,6.03975786 L18.9283985,5.91143837 C19.0316336,5.71244936 19.0255792,5.49433664 18.8949492,5.36370664 Z" id="形状结合备份-6" fill="#4E5D78" transform="translate(12.000000, 12.000001) scale(-1, 1) translate(-12.000000, -12.000001) "></path>
            </g>
        </g>
    </g>
</svg>