<?xml version="1.0" encoding="UTF-8"?>
<svg width="15px" height="15px" viewBox="0 0 15 15" version="1.1" xmlns="http://www.w3.org/2000/svg" xmlns:xlink="http://www.w3.org/1999/xlink">
    <title>search</title>
    <g id="机票" stroke="none" stroke-width="1" fill="none" fill-rule="evenodd">
        <g id="选择城市1f" transform="translate(-18.000000, -158.000000)" fill="#D0D3DB" fill-rule="nonzero">
            <g id="编组-49" transform="translate(0.000000, 50.000000)">
                <g id="编组-2" transform="translate(0.000000, 94.000000)">
                    <g id="编组" transform="translate(10.000000, 6.000000)">
                        <g transform="translate(8.000000, 8.000000)" id="放大icon">
                            <rect id="矩形" fill-opacity="0" x="0" y="0" width="16" height="16"></rect>
                            <path d="M7.0025,0.668333333 C7.82538529,0.668333333 8.60409109,0.954388058 9.22257084,1.46256262 L9.22257084,1.46256262 L9.27666667,1.50933333 L9.34991497,1.51528401 C10.0898626,1.58776836 10.7918953,1.89352394 11.3537097,2.40261282 L11.3537097,2.40261282 L11.4808236,2.5236907 C12.0629957,3.1052633 12.4116483,3.85821072 12.489715,4.65508409 L12.489715,4.65508409 L12.4946667,4.72733333 L12.5423959,4.78240334 C13.014208,5.35670487 13.2946535,6.06947354 13.33231,6.82694743 L13.33231,6.82694743 L13.3366667,7.0025 C13.3366667,7.82538529 13.0506119,8.60409109 12.5424374,9.22257084 L12.5424374,9.22257084 L12.4946667,9.27666667 L12.489716,9.34991497 C12.4331399,9.92746488 12.2344494,10.4819161 11.9078804,10.9646216 L14.3737712,13.4309621 C14.6341207,13.6913117 14.6341207,14.1134217 14.3737712,14.3737712 C14.1334485,14.6140938 13.7552945,14.6325802 13.493767,14.4292303 L13.4309621,14.3737712 L10.9647771,11.9077065 C10.4819073,12.2344301 9.92744787,12.4331364 9.34991591,12.489715 L9.34991591,12.489715 L9.27666667,12.4946667 L9.22257084,12.5424374 C8.64826822,13.0143138 7.9358115,13.2946684 7.17811405,13.3323116 L7.17811405,13.3323116 L7.0025,13.3366667 C6.17994959,13.3366667 5.40088191,13.0505012 4.78240334,12.5423959 L4.78240334,12.5423959 L4.72733333,12.4946667 L4.65503289,12.489725 C3.91503192,12.417276 3.21326429,12.1116315 2.65067505,11.6022254 L2.65067505,11.6022254 L2.52336334,11.4810665 C1.94172587,10.899429 1.59329478,10.1465044 1.51527509,9.34982305 L1.51527509,9.34982305 L1.50933333,9.27666667 L1.46256262,9.22257084 C0.990686241,8.64826822 0.710331558,7.9358115 0.672688422,7.17811405 L0.672688422,7.17811405 L0.668333333,7.0025 C0.668333333,6.17994959 0.95449877,5.40088191 1.46260414,4.78240334 L1.46260414,4.78240334 L1.50933333,4.72733333 L1.51527509,4.65517695 C1.58772194,3.91540137 1.89332965,3.21335487 2.40230978,2.65114537 L2.40230978,2.65114537 L2.52336334,2.52393351 C3.10552627,1.94177057 3.85810876,1.59329704 4.65503289,1.51527495 L4.65503289,1.51527495 L4.72733333,1.50933333 L4.78240334,1.46260414 C5.35670487,0.990792011 6.06947354,0.710346457 6.82694743,0.672690011 L6.82694743,0.672690011 Z M7.0025,2.00166667 C6.41978404,2.00166667 5.87447367,2.2324234 5.47032353,2.63657353 C5.34529928,2.76159779 5.17573001,2.83183568 4.99891901,2.83183568 C4.4267431,2.83183568 3.87889523,3.0540197 3.46617238,3.46674255 C3.05411309,3.87880184 2.83183568,4.4271625 2.83183568,4.99891901 C2.83183568,5.17573001 2.76159779,5.34529928 2.63657353,5.47032353 C2.2324234,5.87447367 2.00166667,6.41978404 2.00166667,7.0025 C2.00166667,7.58556118 2.23225418,8.13035711 2.63657353,8.53467647 C2.76159779,8.65970072 2.83183568,8.82926999 2.83183568,9.00608099 C2.83183568,9.5778375 3.05411309,10.1261982 3.46617238,10.5382575 C3.87889523,10.9509803 4.4267431,11.1731643 4.99891901,11.1731643 C5.17573001,11.1731643 5.34529928,11.2434022 5.47032353,11.3684265 C5.87447367,11.7725766 6.41978404,12.0033333 7.0025,12.0033333 C7.58556118,12.0033333 8.13035711,11.7727458 8.53467647,11.3684265 C8.65970072,11.2434022 8.82926999,11.1731643 9.00608099,11.1731643 C9.57791245,11.1731643 10.1260952,10.9508445 10.5385004,10.5380146 C10.9508445,10.1260952 11.1731643,9.57791245 11.1731643,9.00608099 C11.1731643,8.82926999 11.2434022,8.65970072 11.3684265,8.53467647 C11.7727458,8.13035711 12.0033333,7.58556118 12.0033333,7.0025 C12.0033333,6.41978404 11.7725766,5.87447367 11.3684265,5.47032353 C11.2434022,5.34529928 11.1731643,5.17573001 11.1731643,4.99891901 C11.1731643,4.42708755 10.9508445,3.8789048 10.5380146,3.46649962 C10.1260952,3.05415551 9.57791245,2.83183568 9.00608099,2.83183568 C8.82926999,2.83183568 8.65970072,2.76159779 8.53467647,2.63657353 C8.13035711,2.23225418 7.58556118,2.00166667 7.0025,2.00166667 Z" id="形状结合"></path>
                        </g>
                    </g>
                </g>
            </g>
        </g>
    </g>
</svg>