<?xml version="1.0" standalone="no"?><!DOCTYPE svg PUBLIC "-//W3C//DTD SVG 1.1//EN" "http://www.w3.org/Graphics/SVG/1.1/DTD/svg11.dtd"><svg t="1650426905893" class="icon" viewBox="0 0 1638 1024" version="1.1" xmlns="http://www.w3.org/2000/svg" p-id="1004" xmlns:xlink="http://www.w3.org/1999/xlink" width="51.1875" height="32"><defs><style type="text/css">@font-face { font-family: feedback-iconfont; src: url("//at.alicdn.com/t/font_1031158_u69w8yhxdu.woff2?t=1630033759944") format("woff2"), url("//at.alicdn.com/t/font_1031158_u69w8yhxdu.woff?t=1630033759944") format("woff"), url("//at.alicdn.com/t/font_1031158_u69w8yhxdu.ttf?t=1630033759944") format("truetype"); }
</style></defs><path d="M115.2 0h1024v1024H115.2z" fill="#0052cc" fill-opacity="0" p-id="1005"></path><path d="M629.12 476.352a42.944 42.944 0 0 0 0 71.36C730.176 615.424 789.376 680.32 816.256 779.008a42.944 42.944 0 0 0 82.88-22.592c-27.648-101.504-81.664-173.12-165.248-238.976L726.784 512l7.04-5.44c79.296-62.464 131.84-129.984 160.64-223.168l4.608-15.808A42.944 42.944 0 1 0 816.192 244.992C789.312 343.616 730.24 408.512 629.12 476.352z" fill="#0052cc" p-id="1006"></path><path d="M373.12 476.352a42.944 42.944 0 0 0 0 71.36C474.176 615.424 533.376 680.32 560.256 779.008a42.944 42.944 0 0 0 82.88-22.592c-27.648-101.504-81.664-173.12-165.248-238.976L470.784 512l7.04-5.44c79.296-62.464 131.84-129.984 160.64-223.168l4.608-15.808A42.944 42.944 0 1 0 560.192 244.992C533.312 343.616 474.24 408.512 373.12 476.352z" fill="#0052cc" p-id="1007"></path></svg>